<svg width="239" height="239" viewBox="0 0 239 239" fill="none" xmlns="http://www.w3.org/2000/svg">
<mask id="path-1-outside-1_177_212" maskUnits="userSpaceOnUse" x="0" y="0" width="239" height="239" fill="black">
<rect fill="white" width="239" height="239"/>
<path fill-rule="evenodd" clip-rule="evenodd" d="M174.5 237H217C228.046 237 237 228.046 237 217V174H235V217C235 226.941 226.941 235 217 235H174.5V237ZM174.5 4H217C226.941 4 235 12.0589 235 22V64H237V22C237 10.9543 228.046 2 217 2H174.5V4ZM64.5 2V4H22C12.0589 4 4 12.0589 4 22V64H2V22C2 10.9543 10.9543 2 22 2H64.5ZM64.5 235V237H22C10.9543 237 2 228.046 2 217V174H4V217C4 226.941 12.0589 235 22 235H64.5Z"/>
</mask>
<path fill-rule="evenodd" clip-rule="evenodd" d="M174.5 237H217C228.046 237 237 228.046 237 217V174H235V217C235 226.941 226.941 235 217 235H174.5V237ZM174.5 4H217C226.941 4 235 12.0589 235 22V64H237V22C237 10.9543 228.046 2 217 2H174.5V4ZM64.5 2V4H22C12.0589 4 4 12.0589 4 22V64H2V22C2 10.9543 10.9543 2 22 2H64.5ZM64.5 235V237H22C10.9543 237 2 228.046 2 217V174H4V217C4 226.941 12.0589 235 22 235H64.5Z" fill="#FAD765"/>
<path d="M174.5 237H172.5V239H174.5V237ZM237 174H239V172H237V174ZM235 174V172H233V174H235ZM174.5 235V233H172.5V235H174.5ZM174.5 4H172.5V6H174.5V4ZM235 64H233V66H235V64ZM237 64V66H239V64H237ZM174.5 2V0H172.5V2H174.5ZM64.5 4V6H66.5V4H64.5ZM64.5 2H66.5V0H64.5V2ZM4 64V66H6V64H4ZM2 64H0V66H2V64ZM64.5 237V239H66.5V237H64.5ZM64.5 235H66.5V233H64.5V235ZM2 174V172H0V174H2ZM4 174H6V172H4V174ZM174.5 239H217V235H174.5V239ZM217 239C229.15 239 239 229.15 239 217H235C235 226.941 226.941 235 217 235V239ZM239 217V174H235V217H239ZM237 172H235V176H237V172ZM233 174V217H237V174H233ZM233 217C233 225.837 225.837 233 217 233V237C228.046 237 237 228.046 237 217H233ZM217 233H174.5V237H217V233ZM172.5 235V237H176.5V235H172.5ZM174.5 6H217V2H174.5V6ZM217 6C225.837 6 233 13.1634 233 22H237C237 10.9543 228.046 2 217 2V6ZM233 22V64H237V22H233ZM235 66H237V62H235V66ZM239 64V22H235V64H239ZM239 22C239 9.84974 229.15 0 217 0V4C226.941 4 235 12.0589 235 22H239ZM217 0H174.5V4H217V0ZM172.5 2V4H176.5V2H172.5ZM66.5 4V2H62.5V4H66.5ZM22 6H64.5V2H22V6ZM6 22C6 13.1634 13.1634 6 22 6V2C10.9543 2 2 10.9543 2 22H6ZM6 64V22H2V64H6ZM2 66H4V62H2V66ZM0 22V64H4V22H0ZM22 0C9.84974 0 0 9.84973 0 22H4C4 12.0589 12.0589 4 22 4V0ZM64.5 0H22V4H64.5V0ZM66.5 237V235H62.5V237H66.5ZM22 239H64.5V235H22V239ZM0 217C0 229.15 9.84973 239 22 239V235C12.0589 235 4 226.941 4 217H0ZM0 174V217H4V174H0ZM4 172H2V176H4V172ZM6 217V174H2V217H6ZM22 233C13.1634 233 6 225.837 6 217H2C2 228.046 10.9543 237 22 237V233ZM64.5 233H22V237H64.5V233Z" fill="#FAD765" mask="url(#path-1-outside-1_177_212)"/>
</svg>
